<?xml version="1.0" encoding="iso-8859-1"?>
<!-- Generator: Adobe Illustrator 19.0.0, SVG Export Plug-In . SVG Version: 6.00 Build 0)  -->
<svg version="1.1" id="Capa_1" xmlns="http://www.w3.org/2000/svg" xmlns:xlink="http://www.w3.org/1999/xlink" x="0px" y="0px"
	 viewBox="0 0 496.485 496.485" style="enable-background:new 0 0 496.485 496.485;" xml:space="preserve">
<circle style="fill:#2EA2DB;" cx="248.242" cy="248.242" r="248.242"/>
<rect x="42.667" y="80.679" style="fill:#E1E6E9;" width="280.824" height="375.467"/>
<path style="fill:#193651;" d="M323.491,463.903L323.491,463.903H42.667c-4.655,0-7.758-3.103-7.758-7.758V80.679
	c0-4.655,3.103-7.758,7.758-7.758h280.824c4.655,0,7.758,3.103,7.758,7.758v375.467c0,2.327-0.776,3.879-2.327,5.43
	S325.818,463.903,323.491,463.903z M50.424,448.388h265.309V88.436H50.424V448.388z"/>
<g>
	<rect x="69.042" y="107.055" style="fill:#FFFFFF;" width="227.297" height="322.715"/>
	<polygon style="fill:#FFFFFF;" points="171.442,401.067 376.242,401.067 376.242,44.994 96.194,44.994 96.194,325.818 	"/>
</g>
<path style="fill:#193651;" d="M376.242,408.824h-204.8c-2.327,0-3.879-0.776-5.43-2.327l-75.248-75.248
	c-1.552-1.552-2.327-3.103-2.327-5.43V45.77c0-4.655,3.103-7.758,7.758-7.758h280.824c4.655,0,7.758,3.103,7.758,7.758v355.297
	C384,404.945,380.897,408.824,376.242,408.824z M174.545,393.309h193.939V53.527H103.952v269.188L174.545,393.309z"/>
<polygon style="fill:#E1E6E9;" points="171.442,374.691 122.57,325.818 122.57,72.145 349.867,72.145 349.867,374.691 "/>
<polygon style="fill:#FFFFFF;" points="171.442,325.818 96.194,325.818 171.442,401.067 "/>
<g>
	<path style="fill:#193651;" d="M171.442,408.824c-2.327,0-3.879-0.776-5.43-2.327l-75.248-75.248
		c-2.327-2.327-3.103-5.43-1.552-8.533c1.552-3.103,3.879-4.655,6.982-4.655h75.248c4.655,0,7.758,3.103,7.758,7.758v75.249
		c0,3.103-1.552,6.206-4.655,6.982C172.994,408.048,172.218,408.824,171.442,408.824z M114.812,333.576l48.873,48.873v-48.873
		H114.812z"/>
	<path style="fill:#193651;" d="M314.182,114.812H154.376c-4.655,0-7.758-3.103-7.758-7.758s3.103-7.758,7.758-7.758h159.806
		c4.655,0,7.758,3.103,7.758,7.758S318.061,114.812,314.182,114.812z"/>
	<path style="fill:#193651;" d="M314.182,160.582H154.376c-4.655,0-7.758-3.103-7.758-7.758c0-4.655,3.103-7.758,7.758-7.758
		h159.806c4.655,0,7.758,3.103,7.758,7.758S318.061,160.582,314.182,160.582z"/>
	<path style="fill:#193651;" d="M238.158,224.97h-83.782c-4.655,0-7.758-3.103-7.758-7.758s3.103-7.758,7.758-7.758h83.782
		c4.655,0,7.758,3.103,7.758,7.758S242.036,224.97,238.158,224.97z"/>
	<path style="fill:#193651;" d="M238.158,291.685h-83.782c-4.655,0-7.758-3.103-7.758-7.758s3.103-7.758,7.758-7.758h83.782
		c4.655,0,7.758,3.103,7.758,7.758C245.915,287.806,242.036,291.685,238.158,291.685z"/>
</g>
<circle style="fill:#FFFFFF;" cx="295.564" cy="217.212" r="18.618"/>
<path style="fill:#193651;" d="M295.564,242.812c-14.739,0-26.376-11.636-26.376-26.376s11.636-26.376,26.376-26.376
	s26.376,11.636,26.376,26.376S310.303,242.812,295.564,242.812z M295.564,206.352c-6.206,0-10.861,4.655-10.861,10.861
	s4.655,10.861,10.861,10.861c6.206,0,10.861-4.655,10.861-10.861S301.77,206.352,295.564,206.352z"/>
<circle style="fill:#FFFFFF;" cx="295.564" cy="283.927" r="18.618"/>
<path style="fill:#193651;" d="M295.564,310.303c-14.739,0-26.376-11.636-26.376-26.376s11.636-26.376,26.376-26.376
	s26.376,11.636,26.376,26.376S310.303,310.303,295.564,310.303z M295.564,273.067c-6.206,0-10.861,4.655-10.861,10.861
	c0,6.206,4.655,10.861,10.861,10.861c6.206,0,10.861-4.655,10.861-10.861S301.77,273.067,295.564,273.067z"/>
<path style="fill:#4FBF9F;" d="M442.182,44.994c-14.739,0-27.152,12.412-27.152,27.152v41.115h54.303V72.145
	C469.333,57.406,456.921,44.994,442.182,44.994z"/>
<path style="fill:#193651;" d="M469.333,121.794H415.03c-4.655,0-7.758-3.103-7.758-7.758V72.921
	c0-19.394,15.515-34.909,34.909-34.909c19.394,0,34.909,15.515,34.909,34.909v41.115
	C477.091,117.915,473.212,121.794,469.333,121.794z M422.788,106.279h38.788V72.921c0-10.861-8.533-19.394-19.394-19.394
	c-10.861,0-19.394,8.533-19.394,19.394V106.279z"/>
<path style="fill:#FDBF5E;" d="M415.03,114.036v232.727c0,34.133,9.309,67.491,27.152,96.97
	c17.842-29.479,27.152-62.836,27.152-96.97V114.036C469.333,114.036,415.03,114.036,415.03,114.036z"/>
<g>
	<path style="fill:#193651;" d="M442.182,451.491c-2.327,0-5.43-1.552-6.982-3.879c-18.618-30.255-28.703-65.164-28.703-100.849
		V114.036c0-4.655,3.103-7.758,7.758-7.758h54.303c4.655,0,7.758,3.103,7.758,7.758v232.727c0,35.685-10.085,70.594-28.703,100.849
		C446.836,449.939,444.509,451.491,442.182,451.491z M422.788,121.794v224.97c0,27.927,6.982,55.855,19.394,80.679
		c12.412-24.824,19.394-52.751,19.394-80.679v-224.97L422.788,121.794L422.788,121.794z"/>
	<path style="fill:#193651;" d="M442.182,465.455c-4.655,0-7.758-3.103-7.758-7.758v-13.964c0-4.655,3.103-7.758,7.758-7.758
		s7.758,3.103,7.758,7.758v13.964C449.939,461.576,446.061,465.455,442.182,465.455z"/>
</g>
<g>
	<rect x="235.055" y="336.679" style="fill:#193651;" width="15.515" height="13.188"/>
	<rect x="270.739" y="336.679" style="fill:#193651;" width="15.515" height="13.188"/>
	<rect x="306.424" y="336.679" style="fill:#193651;" width="15.515" height="13.188"/>
</g>
<g>
</g>
<g>
</g>
<g>
</g>
<g>
</g>
<g>
</g>
<g>
</g>
<g>
</g>
<g>
</g>
<g>
</g>
<g>
</g>
<g>
</g>
<g>
</g>
<g>
</g>
<g>
</g>
<g>
</g>
</svg>
